<?xml version="1.0" encoding="utf-8"?>
<!-- Generator: Adobe Illustrator 22.0.1, SVG Export Plug-In . SVG Version: 6.00 Build 0)  -->
<svg version="1.1" id="Layer_1" xmlns="http://www.w3.org/2000/svg" xmlns:xlink="http://www.w3.org/1999/xlink" x="0px" y="0px"
	 viewBox="0 0 105.6 121.7" style="enable-background:new 0 0 105.6 121.7;" xml:space="preserve">
<style type="text/css">
	.st0{fill:#FFFFFF;}
	.st1{fill:#98E5CF;}
	.st2{fill:#FF7B52;}
</style>
<title>bungalow-logo-stacked-white</title>
<path class="st0" d="M33.7,103.6c-3.4,0-6.1,2.8-6.1,6.1c0,0,0,0,0,0v6h2.5v-6l0,0c0-0.6,0.1-1.2,0.5-1.7V108c0-0.1,0.1-0.1,0.1-0.2
	c0.6-0.9,1.5-1.5,2.6-1.6h0.8c1.1,0.1,2,0.7,2.6,1.6l0.1,0.2v0.1c0.3,0.5,0.5,1.1,0.5,1.7l0,0v6h2.5v-6
	C39.8,106.4,37.1,103.7,33.7,103.6C33.7,103.6,33.7,103.6,33.7,103.6z"/>
<path class="st0" d="M23.6,109.9L23.6,109.9c0,0.6-0.1,1.2-0.5,1.7c0,0,0,0,0,0.1c0,0.1-0.1,0.1-0.1,0.2c-0.6,0.9-1.5,1.5-2.6,1.6
	l0,0h-0.4h-0.4l0,0c-1.1-0.1-2-0.7-2.6-1.6c0-0.1-0.1-0.1-0.1-0.2c0,0,0,0,0-0.1c-0.3-0.5-0.5-1.1-0.5-1.7l0,0v-6H14v6
	c-0.1,3.3,2.5,6.2,5.8,6.3c3.3,0.1,6.2-2.5,6.3-5.8c0-0.2,0-0.3,0-0.5v-6h-2.5V109.9z"/>
<path class="st0" d="M6.6,103.6c-1.6-0.1-3.1,0.7-4,2v-8.2L0,98v17.8h2.6V114c0.9,1.3,2.4,2.1,4,2c3.4-0.1,6.1-3,5.9-6.4
	C12.4,106.3,9.8,103.8,6.6,103.6L6.6,103.6z M6.3,113.5c-2-0.1-3.6-1.8-3.5-3.8c0.1-1.9,1.6-3.4,3.5-3.5c1.9-0.1,3.5,1.4,3.6,3.4
	c0,0.1,0,0.2,0,0.3c0.1,2-1.4,3.6-3.4,3.7C6.4,113.5,6.3,113.5,6.3,113.5z"/>
<path class="st0" d="M51.1,105.7c-0.9-1.3-2.4-2.1-4-2c-3.4,0.1-6.1,3-5.9,6.4c0.1,3.2,2.7,5.8,5.9,5.9c1.6,0.1,3.1-0.7,4-2.1v0.6
	c0,3.3-1.5,4.7-4,4.7c-1.4,0-2.7-0.8-3.3-2c-0.5,0.2-1.7,0.9-2.2,1.1c1.1,2.1,3.2,3.3,5.5,3.3c4,0,6.5-2.2,6.5-7.7v-10.1h-2.5V105.7
	z M47.4,113.5c-1.9,0.1-3.6-1.5-3.6-3.4c0-0.1,0-0.2,0-0.2c-0.1-2,1.5-3.6,3.5-3.7c0.1,0,0.1,0,0.2,0c1.9-0.1,3.6,1.4,3.6,3.3
	c0,0.1,0,0.2,0,0.3C51,111.8,49.4,113.5,47.4,113.5C47.4,113.5,47.4,113.5,47.4,113.5z"/>
<polygon class="st0" points="69.9,115.8 72.5,115.8 72.5,98 69.9,97.4 "/>
<path class="st0" d="M80.3,103.6c-3.4,0.1-6.1,3-5.9,6.4c0.1,3.2,2.7,5.8,5.9,5.9c3.4,0.1,6.3-2.5,6.4-5.9c0.1-3.4-2.5-6.3-5.9-6.4
	C80.7,103.6,80.5,103.6,80.3,103.6z M80.3,113.5c-1.9,0-3.6-1.5-3.6-3.5c0-0.1,0-0.1,0-0.2c0.1-2,1.8-3.5,3.8-3.4
	c1.8,0.1,3.3,1.6,3.4,3.4c0.1,1.9-1.4,3.6-3.4,3.7C80.5,113.5,80.4,113.5,80.3,113.5z"/>
<path class="st0" d="M61.5,103.6c-3.4,0.1-6.1,3-5.9,6.4c0.1,3.2,2.7,5.8,5.9,5.9c1.3,0,2.6-0.4,3.7-1.2v0.9h2.5v-6
	c0.1-3.3-2.6-6.1-5.9-6.1C61.8,103.6,61.6,103.6,61.5,103.6z M61.5,113.5c-1.9,0-3.5-1.5-3.6-3.5c0-0.1,0-0.1,0-0.2
	c0.1-2,1.8-3.5,3.8-3.4c1.8,0.1,3.3,1.6,3.4,3.4c0.1,1.9-1.4,3.6-3.4,3.7C61.7,113.5,61.6,113.5,61.5,113.5z"/>
<polygon class="st0" points="102.8,103.9 100,111.9 97.3,103.9 94.8,103.9 92.1,111.9 89.4,103.9 86.6,103.9 91,115.8 93.2,115.8
	96.1,107.4 99.1,115.8 101.2,115.8 105.6,103.9 "/>
<path class="st1" d="M39.1,21.9c-4,0.3-7.6,2.1-8.5,3.5c-0.2,0.3-0.2,0.7-0.1,1.1c0.2,0.4,0.6,0.6,1,0.6c8.1,0.2,13.3,4.8,14.9,9.3
	c0.1,0.3,0.4,0.5,0.7,0.5c0.1,0,0.2,0,0.3,0c0.4-0.1,0.6-0.6,0.5-1c0,0,0,0,0,0c-1.8-4.8-7.1-9.8-15.4-10.3c2-1.3,4.4-2.1,6.8-2.3
	c3.3-0.4,6.6,0.7,8.9,3c0.3,0.3,0.8,0.3,1.1,0c0.3-0.3,0.3-0.8,0-1.1C46.5,22.7,42.8,21.4,39.1,21.9z"/>
<path class="st1" d="M46.5,11.9c-2.2-0.4-4.4,0-6.4,1.1c-0.4,0.4-0.4,1-0.1,1.4c0.1,0.1,0.2,0.2,0.3,0.2c2.2,0.8,4.6,1.8,5.1,4.2
	c0.1,0.3,0.4,0.6,0.7,0.6h0.2c0.4-0.1,0.7-0.5,0.6-0.9c-0.6-2.8-3-4.1-4.8-4.9c1.3-0.4,2.8-0.5,4.1-0.3c1.6,0.2,3,1,3.9,2.3
	c0.2,0.3,0.7,0.4,1,0.2c0.3-0.2,0.4-0.7,0.2-1C50.3,13.2,48.5,12.1,46.5,11.9z"/>
<path class="st1" d="M57.4,26.7L57.4,26.7c0,0,0.1,0,0.1,0c0,0,0.1,0,0.1,0l0.1-0.1c0,0,0.1,0,0.1,0c0.3-0.3,7.4-6.2,14.9-1.2
	c-3.2,0.3-5.7,1.2-7.2,2.6c-0.3,0.3-0.3,0.8,0,1.1c0.1,0.1,0.3,0.2,0.5,0.2c0.2,0,0.4-0.1,0.5-0.2c1.5-1.5,4.6-2.3,8.2-2.3
	c0.1,0,0.2,0,0.3-0.1c0,0,0,0,0.1,0c0.1,0,0.1-0.1,0.2-0.1l0,0c0.1,0,0.2-0.1,0.2-0.2c0,0,0.1-0.1,0.1-0.1c0-0.1,0-0.1,0-0.2
	c0,0,0-0.1,0-0.1s0,0,0,0c0-0.1,0-0.1,0-0.2v-0.1c0,0,0-0.1-0.1-0.1c0,0-0.1-0.1-0.1-0.1l0,0c-7.1-6.2-14.3-2.8-17.2-0.9
	c0.4-5.2,3.2-9.4,6-10.4l0,0c0.1,0,0.1-0.1,0.2-0.1l0.1-0.1c0,0,0.1-0.1,0.1-0.1l0.1-0.1l0,0c0,0,0-0.1,0-0.1c0,0,0-0.1,0-0.1l0,0
	c0-0.1,0-0.1,0-0.1c0,0,0-0.1,0-0.1l0,0c0-0.1-0.1-0.1-0.1-0.1c0,0,0-0.1-0.1-0.1c0,0-0.1-0.1-0.1-0.1c0,0-0.1-0.1-0.1-0.1l0,0
	c-3-1-6.3-0.7-9,0.9c0.1-1,0.1-2,0.1-2.9c0-4.4-1-9.1-2-10.3l0,0l-0.2-0.2c0,0-0.1-0.1-0.2-0.1C52.9,0,52.8,0,52.6,0l0,0
	c-0.2,0-0.3,0-0.4,0.1c-0.1,0-0.2,0.1-0.2,0.2c-1.5,1.6-1.9,4.1-2.3,5.9C49.7,6.6,49.9,7,50.3,7h0.1h0.1h0.1c0,0,0.1,0,0.1-0.1h0.1
	c0-0.1,0.1-0.1,0.1-0.2l0.1-0.1c0.1-0.1,0.1-0.2,0.1-0.3c0-0.3,0.1-0.6,0.2-0.9c0-0.1,0-0.1,0-0.2c0.1-0.3,0.2-0.7,0.2-1l0.1-0.2
	c0.1-0.3,0.2-0.7,0.3-1l0,0c0.1-0.3,0.3-0.6,0.5-0.9c0,0,0-0.1,0.1-0.1l0.1,0.4v0.1c0,0.2,0.1,0.3,0.2,0.5l0.1,0.2
	c0,0.1,0.1,0.3,0.1,0.4L53,4l0.1,0.4c0,0.1,0,0.2,0.1,0.3s0,0.3,0.1,0.4l0.1,0.4c0,0.2,0,0.3,0.1,0.5s0,0.2,0,0.4s0,0.4,0.1,0.6
	s0,0.2,0,0.3l0.1,0.9c0,0.1,0,0.2,0,0.3s0,0.4,0,0.6s0,0.3,0,0.4s0,0.4,0,0.6s0,0.3,0,0.4v1c0,0.2,0,0.4,0,0.6s0,0.3,0,0.4
	s0,0.4,0,0.6s0,0.2,0,0.3c0,0.3-0.1,0.6-0.1,0.9c-0.1,0.5,0.3,1.1,0.8,1.2c0.1,0,0.1,0,0.2,0c0.2,0,0.4-0.1,0.6-0.2
	c2-1.4,4.5-2.1,7-1.8c-2.9,2.2-5.4,6.8-5.3,12.4c0,0,0,0.1,0,0.1c0,0,0,0.1,0,0.1c0,0.1,0,0.1,0.1,0.1c0,0,0,0.1,0,0.1l0,0
	c0,0,0.1,0.1,0.1,0.1l0.1,0.1L57.4,26.7z"/>
<path class="st2" d="M55.3,47.1c-0.3,0.3-0.3,0.8,0,1.1l0.9,1c0.1,0.1,0.3,0.2,0.5,0.2c0.2,0,0.4-0.1,0.5-0.2c0.3-0.3,0.3-0.8,0-1.1
	l-0.9-1C56.1,46.8,55.6,46.8,55.3,47.1C55.3,47.1,55.3,47.1,55.3,47.1z"/>
<path class="st2" d="M74.4,64.1c0-0.7,0-1.4-0.1-2.1c-0.2-5.1-1.8-10-4.6-14.3c-0.3-0.4-0.6-0.9-1-1.3c-0.7-0.9-1.4-1.7-2.2-2.5
	c-0.3-0.3-0.8-0.3-1.1,0c-0.3,0.3-0.3,0.8,0,1.1c0.9,0.8,1.6,1.7,2.3,2.6c-1.2,1.6-2.9,3.7-5,6c-1.2-1.2-2.4-2.4-3.7-3.7
	c-0.3-0.3-0.8-0.3-1.1,0c-0.3,0.3-0.3,0.7,0,1c1.3,1.3,2.5,2.6,3.8,3.8c-2.7,3-6,6.4-9.5,10c-3.4-3.5-6.7-6.9-9.4-10
	c3.4-3.3,6.7-6.7,9.5-9.7l1,1c0.1,0.2,0.3,0.2,0.5,0.2c0.4,0,0.8-0.4,0.7-0.8c0-0.2-0.1-0.4-0.2-0.5l-1-1.1c1.2-1.3,2.3-2.6,3.1-3.6
	c2,0.4,4,1.1,5.7,2.2c0.4,0.2,0.8,0.1,1-0.3c0.2-0.3,0.1-0.8-0.3-1c-1.7-1-3.6-1.8-5.5-2.2c-0.5-0.1-1.1-0.2-1.6-0.3
	c-0.9-0.1-1.9-0.2-2.8-0.2c-1.3,0-2.7,0.1-4,0.4c-0.5,0.1-1.1,0.2-1.6,0.4c-4.4,1.3-8.2,4.1-10.8,7.8c-0.3,0.4-0.6,0.9-0.9,1.3
	c-2.6,4.5-4,9.6-4,14.8c0,0.2,0,0.5,0,0.7c0,0.7,0,1.3,0,1.9C32,71,33.4,76,36,80.3c0.3,0.4,0.5,0.8,0.8,1.2
	c2.6,3.6,6.4,6.2,10.8,7.3c0.7,0.2,1.4,0.3,2.1,0.4c1.2,0.2,2.3,0.3,3.5,0.3c0.8,0,1.7,0,2.5-0.1c0.8-0.1,1.5-0.2,2.3-0.3
	c4.4-0.8,8.4-3.3,11.2-6.8c0.3-0.4,0.6-0.8,0.9-1.2c2.8-4.4,4.3-9.4,4.4-14.6c0-0.6,0.1-1.3,0.1-1.9l-0.1-0.1l0.1-0.1L74.4,64.1z
	 M68.8,49c2.7,4.3,4.1,9.2,4.1,14.2c-2.5-2.2-5.6-5.2-8.9-8.4C65.9,52.6,67.5,50.7,68.8,49z M51.4,65.9c-1.3,1.3-2.7,2.7-4,4
	c-0.3,0.3-0.3,0.8,0,1.1c0.1,0.1,0.3,0.2,0.5,0.2c0.2,0,0.4-0.1,0.5-0.2c1.3-1.3,2.7-2.6,4.1-4c3.3,3.3,6.6,6.5,9.7,9.3
	c-3,3.2-6.3,6.2-9.7,9c-3.4-2.8-6.6-5.8-9.7-9c0.8-0.8,1.7-1.6,2.6-2.4c0.3-0.2,0.4-0.7,0.2-1c-0.2-0.3-0.7-0.4-1-0.2
	c-0.1,0-0.1,0.1-0.1,0.1c-0.9,0.8-1.8,1.7-2.6,2.4c-3.1-3.3-6-6.6-8.5-9.7c0-0.5,0-0.9,0-1.4l0,0c2.5-2.2,5.5-5.1,8.7-8.2
	C44.7,59,48,62.5,51.4,65.9z M53.1,40.2c0.6,0,1.2,0,1.8,0.1c-0.7,0.8-1.5,1.7-2.4,2.7c-0.9-1-1.6-1.8-2.3-2.6
	C51.1,40.2,52.1,40.2,53.1,40.2z M48.5,40.7c0.8,1,1.7,2.1,2.9,3.4c-2.7,2.9-6.1,6.3-9.4,9.6c-1.7-2-3.2-3.7-4.3-5.2
	C40.2,44.7,44,41.9,48.5,40.7z M36.8,49.9c1.1,1.4,2.5,3.1,4.1,4.9c-2.7,2.6-5.4,5.1-7.6,7.2C33.5,57.7,34.7,53.6,36.8,49.9z
	 M33.5,68.1c2.2,2.6,4.6,5.4,7.2,8.1c-1.3,1.2-2.5,2.2-3.6,3.1C35,75.9,33.8,72,33.5,68.1z M37.9,80.5c1.2-1,2.4-2.1,3.8-3.3
	c3,3.2,6.2,6.2,9.6,8.9c-0.7,0.5-1.3,1-2,1.5C44.7,86.9,40.6,84.3,37.9,80.5z M53.1,88c-0.6,0-1.1,0-1.6-0.1c0.3-0.2,0.7-0.5,1-0.8
	c0.4,0.3,0.7,0.6,1.1,0.8C53.4,88,53.2,88,53.1,88z M55.9,87.8c-0.7-0.5-1.5-1-2.2-1.6c3.4-2.8,6.6-5.8,9.6-9c1.7,1.5,3.2,2.8,4.6,4
	C64.9,84.9,60.6,87.3,55.9,87.8L55.9,87.8z M68.7,80c-1.4-1.1-2.9-2.4-4.5-3.9c1.7-1.8,3.1-3.4,4.2-4.6l0.8-0.9
	c0.3-0.3,0.2-0.8-0.1-1.1c-0.3-0.3-0.8-0.2-1.1,0.1c0,0,0,0,0,0l-0.7,0.8c-1.4,1.6-2.8,3.1-4.1,4.5c-3-2.8-6.4-6-9.7-9.2
	c3.3-3.4,6.6-6.8,9.5-10c3.4,3.3,6.7,6.4,9.3,8.7c-0.8,0.9-1.5,1.9-2.4,2.9c-0.3,0.3-0.3,0.8,0,1.1c0,0,0,0,0,0
	c0.1,0.1,0.3,0.2,0.5,0.2c0.2,0,0.4-0.1,0.6-0.3c0.6-0.7,1.2-1.4,1.8-2.2C72.7,71.2,71.3,75.9,68.7,80z"/>
</svg>
